HIERARCHY
ROOT hip
{
  OFFSET 0 0 0
  CHANNELS 6 Xposition Yposition Zposition Zrotation Yrotation Xrotation
  JOINT abdomen
  {
    OFFSET 0 20.6881 -0.73152
    CHANNELS 3 Zrotation Xrotation Yrotation
    JOINT chest
    {
      OFFSET 0 11.7043 -0.48768
      CHANNELS 3 Zrotation Xrotation Yrotation
      JOINT neck
      {
        OFFSET 0 22.1894 -2.19456
        CHANNELS 3 Zrotation Xrotation Yrotation
        JOINT head
        {
          OFFSET -0.24384 7.07133 1.2192
          CHANNELS 3 Zrotation Xrotation Yrotation
          JOINT leftEye
          {
            OFFSET 4.14528 8.04674 8.04672
            CHANNELS 3 Zrotation Xrotation Yrotation
            End Site
            {
              OFFSET 1 0 0
            }
          }
          JOINT rightEye
          {
            OFFSET -3.6576 8.04674 8.04672
            CHANNELS 3 Zrotation Xrotation Yrotation
            End Site
            {
              OFFSET 1 0 0
            }
          }
        }
      }
      JOINT rCollar
      {
        OFFSET -2.68224 19.2634 -4.8768
        CHANNELS 3 Zrotation Xrotation Yrotation
        JOINT rShldr
        {
          OFFSET -8.77824 -1.95073 1.46304
          CHANNELS 3 Zrotation Xrotation Yrotation
          JOINT rForeArm
          {
            OFFSET -28.1742 -1.7115 0.48768
            CHANNELS 3 Zrotation Xrotation Yrotation
            JOINT rHand
            {
              OFFSET -22.5879 0.773209 7.07136
              CHANNELS 3 Zrotation Xrotation Yrotation
              JOINT rThumb1
              {
                OFFSET -1.2192 -0.487915 3.41376
                CHANNELS 3 Zrotation Xrotation Yrotation
                JOINT rThumb2
                {
                  OFFSET -3.37035 -0.52449 3.41376
                  CHANNELS 3 Zrotation Xrotation Yrotation
                  End Site
                  {
                    OFFSET -1.78271 -1.18214 1.43049
                  }
                }
              }
              JOINT rIndex1
              {
                OFFSET -7.75947 0.938293 5.60832
                CHANNELS 3 Zrotation Xrotation Yrotation
                JOINT rIndex2
                {
                  OFFSET -2.54057 -0.884171 1.56538
                  CHANNELS 3 Zrotation Xrotation Yrotation
                  End Site
                  {
                    OFFSET -1.62519 -0.234802 1.16502
                  }
                }
              }
              JOINT rMid1
              {
                OFFSET -8.24714 1.18213 3.41376
                CHANNELS 3 Zrotation Xrotation Yrotation
                JOINT rMid2
                {
                  OFFSET -3.10165 -0.590103 1.0647
                  CHANNELS 3 Zrotation Xrotation Yrotation
                  End Site
                  {
                    OFFSET -2.48547 -0.328903 0.83742
                  }
                }
              }
              JOINT rRing1
              {
                OFFSET -8.82822 0.546677 1.51678
                CHANNELS 3 Zrotation Xrotation Yrotation
                JOINT rRing2
                {
                  OFFSET -2.60934 -0.819778 -0.0198488
                  CHANNELS 3 Zrotation Xrotation Yrotation
                  End Site
                  {
                    OFFSET -2.33842 -0.294052 0.168128
                  }
                }
              }
              JOINT rPinky1
              {
                OFFSET -8.27202 -0.0477905 -0.4584
                CHANNELS 3 Zrotation Xrotation Yrotation
                JOINT rPinky2
                {
                  OFFSET -1.82734 -0.647385 -0.700984
                  CHANNELS 3 Zrotation Xrotation Yrotation
                  End Site
                  {
                    OFFSET -1.69225 -0.51767 -0.607171
                  }
                }
              }
            }
          }
        }
      }
      JOINT lCollar
      {
        OFFSET 2.68224 19.2634 -4.8768
        CHANNELS 3 Zrotation Xrotation Yrotation
        JOINT lShldr
        {
          OFFSET 8.77824 -1.95073 1.46304
          CHANNELS 3 Zrotation Xrotation Yrotation
          JOINT lForeArm
          {
            OFFSET 28.1742 -1.7115 0.48768
            CHANNELS 3 Zrotation Xrotation Yrotation
            JOINT lHand
            {
              OFFSET 22.5879 0.773209 7.07136
              CHANNELS 3 Zrotation Xrotation Yrotation
              JOINT lThumb1
              {
                OFFSET 1.2192 -0.487915 3.41376
                CHANNELS 3 Zrotation Xrotation Yrotation
                JOINT lThumb2
                {
                  OFFSET 3.37035 -0.52449 3.41376
                  CHANNELS 3 Zrotation Xrotation Yrotation
                  End Site
                  {
                    OFFSET 1.78271 -1.18214 1.43049
                  }
                }
              }
              JOINT lIndex1
              {
                OFFSET 7.75947 0.938293 5.60832
                CHANNELS 3 Zrotation Xrotation Yrotation
                JOINT lIndex2
                {
                  OFFSET 2.54057 -0.884171 1.56538
                  CHANNELS 3 Zrotation Xrotation Yrotation
                  End Site
                  {
                    OFFSET 1.62519 -0.234802 1.16502
                  }
                }
              }
              JOINT lMid1
              {
                OFFSET 8.24714 1.18213 3.41376
                CHANNELS 3 Zrotation Xrotation Yrotation
                JOINT lMid2
                {
                  OFFSET 3.10165 -0.590103 1.0647
                  CHANNELS 3 Zrotation Xrotation Yrotation
                  End Site
                  {
                    OFFSET 2.48547 -0.328903 0.83742
                  }
                }
              }
              JOINT lRing1
              {
                OFFSET 8.82822 0.546677 1.51678
                CHANNELS 3 Zrotation Xrotation Yrotation
                JOINT lRing2
                {
                  OFFSET 2.60934 -0.819778 -0.0198488
                  CHANNELS 3 Zrotation Xrotation Yrotation
                  End Site
                  {
                    OFFSET 2.33842 -0.294052 0.168128
                  }
                }
              }
              JOINT lPinky1
              {
                OFFSET 8.27202 -0.0477905 -0.4584
                CHANNELS 3 Zrotation Xrotation Yrotation
                JOINT lPinky2
                {
                  OFFSET 1.82734 -0.647385 -0.700984
                  CHANNELS 3 Zrotation Xrotation Yrotation
                  End Site
                  {
                    OFFSET 1.69225 -0.51767 -0.607171
                  }
                }
              }
            }
          }
        }
      }
    }
  }
  JOINT rButtock
  {
    OFFSET -8.77824 4.35084 1.2192
    CHANNELS 3 Zrotation Xrotation Yrotation
    JOINT rThigh
    {
      OFFSET 0 -1.70687 -2.19456
      CHANNELS 3 Zrotation Xrotation Yrotation
      JOINT rShin
      {
        OFFSET 0 -36.8199 0.73152
        CHANNELS 3 Zrotation Xrotation Yrotation
        JOINT rFoot
        {
          OFFSET 0.73152 -45.1104 -5.12064
          CHANNELS 3 Zrotation Xrotation Yrotation
          End Site
          {
            OFFSET -1.1221 -3.69964 12.103
          }
        }
      }
    }
  }
  JOINT lButtock
  {
    OFFSET 8.77824 4.35084 1.2192
    CHANNELS 3 Zrotation Xrotation Yrotation
    JOINT lThigh
    {
      OFFSET 0 -1.70687 -2.19456
      CHANNELS 3 Zrotation Xrotation Yrotation
      JOINT lShin
      {
        OFFSET 0 -36.8199 0.73152
        CHANNELS 3 Zrotation Xrotation Yrotation
        JOINT lFoot
        {
          OFFSET -0.73152 -45.1104 -5.12064
          CHANNELS 3 Zrotation Xrotation Yrotation
          End Site
          {
            OFFSET 1.1221 -3.69964 12.103
          }
        }
      }
    }
  }
}
MOTION
Frames:	4
Frame Time:	0.03333
-22.524819802492857 63.30065727233887 -75.03275889903307 169.00099182128906 -28.725500106811523 -171.72293090820312 -18.180606842041016 7.019074440002441 3.4686596393585205 4.609787464141846 -8.711100578308105 0.7522719502449036 -9.91589069366455 16.59296417236328 -14.06998062133789 12.708401679992676 -22.967260360717773 -25.296457290649414 -0.33727213740348816 -0.2317274957895279 0.12564851343631744 0.5376651883125305 0.6055711507797241 -0.32225313782691956 -0.12877455353736877 -0.9688044190406799 0.48806506395339966 33.64847946166992 -24.113861083984375 67.89303588867188 -6.10989236831665 -2.5397558212280273 10.51050853729248 -1.0820740461349487 36.9700813293457 6.1026530265808105 0.18259182572364807 0.3397740423679352 -0.28610292077064514 0.11478271335363388 -0.4824977219104767 -0.5815142393112183 0.06787639856338501 -0.02800617925822735 -0.5641674399375916 8.32484245300293 5.680755615234375 0.6057770252227783 0.09613867849111557 0.08946862816810608 -0.35406896471977234 2.672065496444702 0.7230673432350159 0.2926633059978485 -0.4599088430404663 0.055405959486961365 0.14600610733032227 9.875877380371094 1.9946898221969604 0.5144107341766357 0.02316891774535179 0.8150618672370911 -0.28522706031799316 1.7722598314285278 -0.2529345154762268 0.016377482563257217 0.1265980452299118 -0.4175250828266144 0.09365800023078918 -113.51509857177734 49.35862350463867 52.59897232055664 27.450071334838867 -41.05337905883789 -85.0864486694336 8.2211275100708 -58.374454498291016 13.710562705993652 1.1255617141723633 0.010911412537097931 0.33706068992614746 0.9263918399810791 -0.42839765548706055 0.33242031931877136 0.20872628688812256 -0.07063010334968567 -0.18946130573749542 -6.610383033752441 5.907105922698975 0.3483209013938904 0.6569550037384033 0.09143105149269104 0.2475612610578537 -3.9218688011169434 0.9217938780784607 0.06046765297651291 0.6976615190505981 -0.4197913706302643 -0.14837737381458282 -10.27099609375 0.6736242175102234 -0.868144690990448 0.3977314829826355 -0.25965845584869385 -0.3368147909641266 -2.588531017303467 -0.7394150495529175 -0.06489168107509613 -0.23800304532051086 -0.007438807748258114 -0.5694214105606079 -63.223533630371094 -61.37901306152344 -52.56367874145508 -1.171327829360962 71.03527069091797 1.5510220527648926 1.5789082050323486 0.3730599880218506 17.92186164855957 0.2197664976119995 -0.41969507932662964 -0.08903063833713531 3.970078945159912 10.694185256958008 -0.8968893885612488 0.7994533777236938 34.355621337890625 -2.3746964931488037 16.004119873046875 -14.968978881835938 38.85566711425781
-23.53864135220647 63.14429044723511 -75.01947674900293 168.73377990722656 -28.911174774169922 -171.28466796875 -18.59699058532715 6.682464599609375 3.359079360961914 4.672031402587891 -8.62921142578125 0.806857705116272 -9.928060531616211 16.648733139038086 -14.190908432006836 12.906814575195312 -22.858911514282227 -25.594070434570312 -0.37962833046913147 -0.2990780174732208 0.15173833072185516 0.5252012610435486 0.5516162514686584 -0.2822107672691345 -0.09625700861215591 -0.9987637996673584 0.5081329345703125 33.680538177490234 -24.39707374572754 67.89952850341797 -5.960496425628662 -2.46144700050354 10.2733736038208 -1.112030029296875 36.81327819824219 6.033382892608643 0.16765885055065155 0.3030634820461273 -0.22405821084976196 0.047694962471723557 -0.48076412081718445 -0.5393657088279724 0.003668553428724408 -0.04036598652601242 -0.6621046662330627 8.239983558654785 5.659863471984863 0.6343322992324829 0.08471273630857468 0.012990332208573818 -0.3583642244338989 2.656764030456543 0.7356635332107544 0.2592964768409729 -0.4009748101234436 -0.021364416927099228 0.25508636236190796 9.949161529541016 1.876659870147705 0.520392119884491 -0.04056621715426445 0.7991887927055359 -0.3276878297328949 1.804369568824768 -0.32247036695480347 0.016698559746146202 0.11715805530548096 -0.3350624442100525 0.05670081824064255 -113.9273681640625 49.04539489746094 53.119564056396484 27.416086196899414 -41.03678894042969 -85.28475952148438 8.47136402130127 -59.108734130859375 14.113510131835938 1.090423583984375 0.054315559566020966 0.3412019610404968 0.9712960720062256 -0.3713257312774658 0.33994388580322266 0.2599964439868927 -0.1513245701789856 -0.14667204022407532 -6.612761497497559 5.916981220245361 0.29977720975875854 0.6574943661689758 0.1325538158416748 0.22058680653572083 -3.928553342819214 0.9675968885421753 0.023100880905985832 0.6718882918357849 -0.3725395202636719 -0.19472891092300415 -10.163169860839844 0.6039244532585144 -0.8758391737937927 0.35436272621154785 -0.2350681722164154 -0.32180464267730713 -2.6220431327819824 -0.8007128834724426 -0.1569952368736267 -0.27005717158317566 0.02543937973678112 -0.5440004467964172 -64.32184600830078 -61.50865173339844 -53.6231803894043 -1.2761616706848145 71.04557037353516 1.6457204818725586 1.5906316041946411 0.4331914782524109 18.11405372619629 0.26959285140037537 -0.3840208053588867 -0.13398125767707825 3.7502565383911133 11.13037109375 -0.8408495187759399 0.7848025560379028 33.84697341918945 -2.4664950370788574 16.153297424316406 -15.079090118408203 39.31999206542969
-24.45466248318553 63.31157088279724 -74.90506786853075 168.45864868164062 -27.72161293029785 -170.51321411132812 -18.550453186035156 6.621954441070557 3.4220504760742188 4.641298770904541 -8.629786491394043 0.9001929759979248 -9.79862117767334 16.69634246826172 -14.058783531188965 12.883015632629395 -22.942495346069336 -25.335063934326172 -0.3713001012802124 -0.35878491401672363 0.16388462483882904 0.48650431632995605 0.4429478645324707 -0.23145002126693726 -0.06581830978393555 -0.9502208828926086 0.5528272390365601 33.425838470458984 -23.989030838012695 67.7394790649414 -6.723865032196045 -2.70694637298584 11.5369873046875 -1.0902423858642578 35.74594497680664 5.784331321716309 0.12482485920190811 0.25594407320022583 -0.18672128021717072 -0.00737365335226059 -0.47682467103004456 -0.4968426525592804 -0.06735710054636002 -0.027015147730708122 -0.7120838761329651 8.161419868469238 5.61201810836792 0.6014237403869629 0.05749049782752991 0.026626596227288246 -0.38648223876953125 2.628319263458252 0.7736497521400452 0.26998385787010193 -0.340871661901474 -0.05189262330532074 0.31243619322776794 10.039898872375488 1.7968828678131104 0.5115005373954773 -0.09766809642314911 0.765586256980896 -0.4026455581188202 1.8332034349441528 -0.33251699805259705 0.02666369266808033 0.14843475818634033 -0.21106065809726715 0.10352643579244614 -113.87897491455078 49.25645446777344 52.60541915893555 27.343782424926758 -41.253562927246094 -85.89881896972656 8.629932403564453 -59.58976364135742 14.354073524475098 1.0139437913894653 0.0954592153429985 0.31782498955726624 1.0302380323410034 -0.35574811697006226 0.360763818025589 0.2591765522956848 -0.18263274431228638 -0.13045407831668854 -6.6415300369262695 5.971806526184082 0.26804694533348083 0.644496500492096 0.1616358608007431 0.2744442820549011 -3.930805206298828 1.0225749015808105 -0.020177632570266724 0.6737233400344849 -0.29308998584747314 -0.2224210649728775 -10.120174407958984 0.5512095093727112 -0.8757666349411011 0.33134859800338745 -0.18492655456066132 -0.3003808856010437 -2.6905553340911865 -0.9316823482513428 -0.25245222449302673 -0.26949334144592285 0.07812996953725815 -0.5159360766410828 -65.45177459716797 -61.5869255065918 -55.001739501953125 -1.485232949256897 71.75208282470703 1.8817994594573975 1.6070228815078735 0.19007892906665802 17.538780212402344 0.30353784561157227 -0.3527747094631195 -0.1763826161623001 3.9380316734313965 10.359375953674316 -0.5198217630386353 0.845848798751831 34.54692077636719 -2.5879967212677 16.261077880859375 -15.154204368591309 39.53153991699219
-25.271811243146658 63.308185338974 -74.70938805490732 168.09783935546875 -26.306177139282227 -169.7483673095703 -18.35554313659668 6.574165344238281 3.4429311752319336 4.546512126922607 -8.613052368164062 0.9769493341445923 -9.632286071777344 16.68821144104004 -13.85744857788086 12.791059494018555 -23.009830474853516 -24.93142318725586 -0.3324059844017029 -0.36722198128700256 0.14198444783687592 0.4303872585296631 0.32092124223709106 -0.19843009114265442 -0.038451794534921646 -0.8541311025619507 0.5804651975631714 32.98802185058594 -23.798725128173828 67.48604583740234 -7.419374465942383 -2.9276742935180664 12.727191925048828 -1.084729790687561 34.754634857177734 5.5909223556518555 0.062486641108989716 0.20510806143283844 -0.16827313601970673 -0.04081301763653755 -0.4400973320007324 -0.4783421754837036 -0.13296230137348175 -0.013789458200335503 -0.7460677027702332 8.060938835144043 5.5303263664245605 0.563275158405304 0.04681139439344406 0.030729196965694427 -0.401030957698822 2.5854787826538086 0.8079509139060974 0.2652547061443329 -0.28319334983825684 -0.07697565853595734 0.341490775346756 10.115601539611816 1.7209771871566772 0.49387127161026 -0.11012860387563705 0.7016335129737854 -0.48865145444869995 1.8535950183868408 -0.31186386942863464 0.040666889399290085 0.20506638288497925 -0.1277044266462326 0.17356662452220917 -113.44068908691406 49.60481643676758 51.82188415527344 27.316864013671875 -41.23714828491211 -86.07015228271484 8.714585304260254 -59.90822982788086 14.480262756347656 0.9027875661849976 0.12037355452775955 0.2871606945991516 1.0712385177612305 -0.3484944999217987 0.39075279235839844 0.21600481867790222 -0.1911614090204239 -0.12345808744430542 -6.6609721183776855 5.978169918060303 0.24167291820049286 0.6522926092147827 0.17112427949905396 0.33427441120147705 -3.882134199142456 1.0568708181381226 -0.06854140013456345 0.7113140225410461 -0.23909345269203186 -0.24481648206710815 -10.064972877502441 0.5204685926437378 -0.8600054979324341 0.3056410849094391 -0.12413377314805984 -0.30043575167655945 -2.736631155014038 -1.0514127016067505 -0.31477251648902893 -0.2792481482028961 0.13510455191135406 -0.470242440700531 -66.17782592773438 -61.61334228515625 -56.08510208129883 -1.7409051656723022 72.27130126953125 2.1492838859558105 1.659777045249939 0.00502907345071435 16.685483932495117 0.2991666793823242 -0.31604668498039246 -0.21467623114585876 4.157247066497803 9.599824905395508 -0.281637966632843 0.8579967617988586 35.13588333129883 -2.685849905014038 16.309776306152344 -15.117803573608398 39.62199020385742
